<svg id="Layer_1" enable-background="new 0 0 512 512" height="512" viewBox="0 0 512 512" width="512" xmlns="http://www.w3.org/2000/svg"><g><path d="m368 496h-135.751c-21.133 0-41.9-5.515-60.249-16s-39.116-16-60.249-16h-7.751v-224h48l35.319-37.894c38.997-41.841 60.681-96.91 60.681-154.106 0-17.695 14.337-32 31.991-32 26.437 0 48.003 21.416 48.007 48l.002 15.942c.009 63.225-15.313 112.205-14.735 110.085-4.666 17.11 8.214 33.973 25.949 33.973h28.786z" fill="#f8e9d2"/><path d="m452 296h-88c-19.882 0-36-16.118-36-36 0-19.827 16.063-36 36-36h88c19.882 0 36 16.118 36 36 0 19.827-16.063 36-36 36z" fill="#f8e9d2"/><path d="m460 368h-120c-19.882 0-36-16.118-36-36 0-19.827 16.063-36 36-36h120c19.882 0 36 16.118 36 36 0 19.827-16.063 36-36 36z" fill="#f8e9d2"/><path d="m456 432h-112c-17.673 0-32-14.327-32-32 0-17.624 14.278-32 32-32h112c17.673 0 32 14.327 32 32 0 17.624-14.278 32-32 32z" fill="#f8e9d2"/><path d="m440 496h-72c-17.673 0-32-14.327-32-32 0-17.624 14.278-32 32-32h72c17.673 0 32 14.327 32 32 0 17.624-14.278 32-32 32z" fill="#f8e9d2"/><g fill="#e4d5c1"><path d="m488 260c0 19.893-16.12 36-36 36h-48c9.94 0 18.94-4.03 25.46-10.54 22.493-22.528 6.653-61.46-25.46-61.46h48c19.88 0 36 16.12 36 36z"/><path d="m496 332c0 19.893-16.12 36-36 36h-48c9.94 0 18.94-4.03 25.46-10.54 22.493-22.528 6.653-61.46-25.46-61.46h48c19.88 0 36 16.12 36 36z"/><path d="m488 400c0 17.679-14.319 32-32 32h-48c8.84 0 16.84-3.58 22.63-9.37 19.967-19.967 5.976-54.63-22.63-54.63h48c17.67 0 32 14.33 32 32z"/><path d="m472 464c0 17.679-14.319 32-32 32h-48c8.84 0 16.84-3.58 22.63-9.37 19.967-19.967 5.976-54.63-22.63-54.63h48c17.67 0 32 14.33 32 32z"/><path d="m364 296h-48c-19.88 0-36-16.12-36-36 0-19.893 16.12-36 36-36h48c-9.94 0-18.94 4.03-25.46 10.54-22.493 22.528-6.653 61.46 25.46 61.46z"/><path d="m340 368h-48c-19.88 0-36-16.12-36-36 0-19.893 16.12-36 36-36h48c-9.94 0-18.94 4.03-25.46 10.54-22.493 22.528-6.653 61.46 25.46 61.46z"/><path d="m344 432h-48c-17.67 0-32-14.33-32-32 0-17.679 14.319-32 32-32h48c-8.84 0-16.84 3.58-22.63 9.37-19.967 19.966-5.976 54.63 22.63 54.63z"/><path d="m368 496h-48c-17.67 0-32-14.33-32-32 0-17.679 14.319-32 32-32h48c-8.84 0-16.84 3.58-22.63 9.37-19.967 19.966-5.976 54.63 22.63 54.63z"/></g><path d="m0 208h104v288h-104z" fill="#acebe2"/><path d="m56 208h48v288h-48z" fill="#98d7ce"/><path d="m493.041 291.875c26.307-33.795 2.358-83.875-41.041-83.875-12.696 0-100.028 0-112.786 0-7.165 0-12.413-6.795-10.512-13.763 10.156-37.241 15.303-75.696 15.298-114.297l-.002-15.942c-.005-35.289-28.719-63.998-64.007-63.998-26.463 0-47.991 21.529-47.991 48 0 53.329-20.025 104.185-56.386 143.197l-30.574 32.803h-25.04v-16c0-8.836-7.163-16-16-16h-88c-8.837 0-16 7.164-16 16s7.163 16 16 16h72v256h-72c-8.837 0-16 7.164-16 16s7.163 16 16 16h88c8.837 0 16-7.164 16-16v-15.662c15.464 1.219 30.552 5.833 44.062 13.554 20.731 11.846 44.31 18.108 68.187 18.108h207.751c36.757 0 59.766-39.796 41.799-71.554 23.762-15.211 29.303-47.174 12.468-69.382 24.19-21.246 23.488-58.801-1.226-79.189zm-37.041 124.125c-15.028 0-102.352 0-112 0-8.822 0-16-7.178-16-16s7.178-16 16-16h112c8.822 0 16 7.178 16 16s-7.178 16-16 16zm-116-64c-11.028 0-20-8.972-20-20s8.972-20 20-20h120c11.028 0 20 8.972 20 20s-8.972 20-20 20c-38.963 0-81.61 0-120 0zm112-112c11.028 0 20 8.972 20 20s-8.972 20-20 20h-88c-11.028 0-20-8.972-20-20s8.972-20 20-20zm-272.061 226.108c-18.339-10.479-38.908-16.579-59.938-17.849v-192.259h32c4.438 0 8.678-1.844 11.704-5.091l35.318-37.894c41.901-44.957 64.977-103.56 64.977-165.024 0-8.817 7.174-15.991 15.991-15.991 17.646 0 32.004 14.356 32.007 32.002l.002 15.942c.005 35.757-4.763 71.377-14.171 105.873-5.421 19.88 3.994 39.716 20.744 48.918-8.706 15.592-8.732 34.509-.286 50.034-34.142 15.759-40.925 61.377-12.553 86.295-18.692 24.659-9.389 60.178 18.727 72.763-5.382 11.57-5.825 24.568-1.708 36.173h-90.503c-18.318 0-36.407-4.804-52.311-13.892zm260.061 13.892h-72c-8.822 0-16-7.178-16-16s7.178-16 16-16h72c8.822 0 16 7.178 16 16s-7.178 16-16 16z"/></g></svg>